<?xml version="1.0" encoding="UTF-8"?>
<svg xmlns="http://www.w3.org/2000/svg" xmlns:xlink="http://www.w3.org/1999/xlink" width="192" height="59" viewBox="0 0 192 59">
<path fill-rule="evenodd" fill="rgb(4.386902%, 4.804993%, 4.13208%)" fill-opacity="1" d="M 49.332031 4.230469 L 47.996094 10.355469 L 51.960938 10.355469 L 53.4375 4.230469 L 59.277344 4.230469 L 55.5 21.195312 L 49.609375 21.191406 L 50.972656 14.675781 L 47.117188 14.675781 L 45.542969 21.191406 L 39.472656 21.191406 L 42.277344 8.632812 L 37.027344 8.628906 L 34.226562 21.195312 L 27.984375 21.191406 L 30.777344 8.628906 L 17.097656 8.628906 L 16.640625 10.660156 L 25.074219 10.660156 L 24.1875 14.65625 L 15.679688 14.65625 L 15.191406 16.785156 L 24.019531 16.785156 L 23.03125 21.191406 L 7.953125 21.191406 L 11.734375 4.230469 L 49.332031 4.230469 "/>
<path fill-rule="evenodd" fill="rgb(13.729858%, 12.159729%, 12.548828%)" fill-opacity="1" d="M 8.070312 35.371094 L 8.070312 29.636719 L 11.089844 29.636719 L 11.089844 30.414062 L 8.992188 30.414062 L 8.992188 32.042969 L 10.988281 32.042969 L 10.988281 32.792969 L 8.992188 32.792969 L 8.992188 34.574219 L 11.089844 34.574219 L 11.089844 35.371094 L 8.070312 35.371094 "/>
<path fill-rule="evenodd" fill="rgb(13.729858%, 12.159729%, 12.548828%)" fill-opacity="1" d="M 13.609375 29.941406 C 13.609375 29.617188 13.34375 29.371094 13.03125 29.371094 C 12.710938 29.371094 12.445312 29.625 12.445312 29.941406 C 12.445312 30.257812 12.710938 30.511719 13.03125 30.511719 C 13.34375 30.511719 13.609375 30.257812 13.609375 29.941406 Z M 13.480469 35.371094 L 13.480469 31.140625 L 12.574219 31.140625 L 12.574219 35.371094 L 13.480469 35.371094 "/>
<path fill-rule="evenodd" fill="rgb(13.729858%, 12.159729%, 12.548828%)" fill-opacity="1" d="M 17.582031 33.183594 C 17.582031 33.910156 17.207031 34.714844 16.535156 34.714844 C 15.957031 34.714844 15.691406 34.238281 15.691406 33.382812 C 15.691406 32.234375 16.183594 31.792969 16.910156 31.792969 C 17.132812 31.792969 17.351562 31.816406 17.582031 31.867188 Z M 18.484375 35.378906 L 18.484375 29.167969 L 17.582031 29.167969 L 17.582031 31.109375 C 17.351562 31.09375 17.148438 31.074219 16.945312 31.074219 C 15.574219 31.074219 14.738281 32.003906 14.738281 33.46875 C 14.738281 34.699219 15.253906 35.464844 16.289062 35.464844 C 16.945312 35.464844 17.4375 35.105469 17.667969 34.585938 L 17.683594 34.585938 C 17.644531 34.828125 17.625 35.15625 17.625 35.378906 L 18.484375 35.378906 "/>
<path fill-rule="evenodd" fill="rgb(13.729858%, 12.159729%, 12.548828%)" fill-opacity="1" d="M 22.636719 32.632812 C 22.636719 33.183594 22.261719 33.496094 21.695312 33.496094 C 21.082031 33.496094 20.742188 33.175781 20.742188 32.625 C 20.742188 32.105469 21.101562 31.742188 21.703125 31.742188 C 22.285156 31.742188 22.636719 32.074219 22.636719 32.632812 Z M 23.808594 35.933594 C 23.808594 35.144531 23.289062 34.714844 22.371094 34.714844 L 21.652344 34.714844 C 21.144531 34.714844 20.957031 34.628906 20.957031 34.410156 C 20.957031 34.289062 21.03125 34.160156 21.203125 34.09375 C 21.328125 34.117188 21.523438 34.136719 21.683594 34.136719 C 22.871094 34.136719 23.511719 33.488281 23.511719 32.574219 C 23.511719 32.269531 23.398438 32.015625 23.222656 31.871094 L 23.867188 31.871094 L 23.867188 31.152344 L 22.441406 31.152344 C 22.210938 31.101562 22 31.070312 21.746094 31.070312 C 20.539062 31.070312 19.863281 31.820312 19.863281 32.710938 C 19.863281 33.234375 20.074219 33.667969 20.488281 33.898438 C 20.195312 34.023438 20.007812 34.316406 20.007812 34.628906 C 20.007812 34.910156 20.167969 35.128906 20.421875 35.253906 C 20.058594 35.441406 19.742188 35.839844 19.742188 36.320312 C 19.742188 37.136719 20.429688 37.558594 21.53125 37.558594 C 22.890625 37.558594 23.808594 36.839844 23.808594 35.933594 L 22.90625 36.054688 C 22.90625 36.515625 22.464844 36.855469 21.675781 36.855469 C 21.066406 36.855469 20.644531 36.597656 20.644531 36.148438 C 20.644531 35.859375 20.820312 35.601562 21.109375 35.441406 C 21.175781 35.449219 21.261719 35.449219 21.339844 35.449219 L 22.125 35.449219 C 22.660156 35.449219 22.90625 35.6875 22.90625 36.054688 L 23.808594 35.933594 "/>
<path fill-rule="evenodd" fill="rgb(13.729858%, 12.159729%, 12.548828%)" fill-opacity="1" d="M 27.441406 32.667969 L 25.660156 32.667969 C 25.734375 32.101562 26.089844 31.730469 26.597656 31.730469 C 27.128906 31.730469 27.457031 32.09375 27.441406 32.667969 Z M 28.347656 32.882812 C 28.347656 31.882812 27.832031 31.058594 26.632812 31.058594 C 25.40625 31.058594 24.707031 32.007812 24.707031 33.28125 C 24.707031 34.789062 25.429688 35.464844 26.742188 35.464844 C 27.253906 35.464844 27.773438 35.371094 28.195312 35.195312 L 28.109375 34.472656 C 27.761719 34.644531 27.316406 34.746094 26.882812 34.746094 C 26.046875 34.746094 25.617188 34.296875 25.644531 33.308594 L 28.324219 33.308594 C 28.339844 33.144531 28.347656 33 28.347656 32.882812 "/>
<path fill-rule="evenodd" fill="rgb(13.729858%, 12.159729%, 12.548828%)" fill-opacity="1" d="M 32.292969 35.371094 L 32.292969 32.644531 C 32.292969 32.113281 32.148438 31.808594 31.667969 31.808594 C 31.035156 31.808594 30.574219 32.480469 30.574219 33.324219 L 30.574219 35.371094 L 29.664062 35.371094 L 29.664062 31.144531 L 30.53125 31.144531 C 30.53125 31.359375 30.511719 31.722656 30.46875 31.960938 L 30.480469 31.96875 C 30.722656 31.429688 31.230469 31.058594 31.9375 31.058594 C 32.898438 31.058594 33.195312 31.65625 33.195312 32.40625 L 33.195312 35.371094 L 32.292969 35.371094 "/>
<path fill-rule="evenodd" fill="rgb(13.729858%, 12.159729%, 12.548828%)" fill-opacity="1" d="M 36.167969 29.835938 C 36.167969 29.554688 35.9375 29.324219 35.648438 29.324219 C 35.359375 29.324219 35.136719 29.554688 35.136719 29.835938 C 35.136719 30.125 35.359375 30.355469 35.648438 30.355469 C 35.9375 30.355469 36.167969 30.125 36.167969 29.835938 Z M 37.824219 29.835938 C 37.824219 29.554688 37.59375 29.324219 37.3125 29.324219 C 37.023438 29.324219 36.792969 29.554688 36.792969 29.835938 C 36.792969 30.125 37.023438 30.355469 37.3125 30.355469 C 37.59375 30.355469 37.824219 30.125 37.824219 29.835938 Z M 38.480469 33.171875 C 38.480469 31.675781 37.679688 31.058594 36.550781 31.058594 C 35.269531 31.058594 34.449219 32.023438 34.449219 33.308594 C 34.449219 34.808594 35.210938 35.464844 36.378906 35.464844 C 37.628906 35.464844 38.480469 34.484375 38.480469 33.171875 L 37.542969 33.234375 C 37.542969 34.21875 37.050781 34.683594 36.464844 34.683594 C 35.761719 34.683594 35.386719 34.175781 35.386719 33.214844 C 35.386719 32.238281 35.921875 31.808594 36.472656 31.808594 C 37.195312 31.808594 37.542969 32.324219 37.542969 33.234375 L 38.480469 33.171875 "/>
<path fill-rule="evenodd" fill="rgb(13.729858%, 12.159729%, 12.548828%)" fill-opacity="1" d="M 40.4375 35.464844 C 40.121094 35.464844 39.808594 35.429688 39.542969 35.378906 L 39.570312 34.609375 C 39.832031 34.6875 40.164062 34.746094 40.488281 34.746094 C 40.984375 34.746094 41.324219 34.535156 41.324219 34.183594 C 41.324219 33.332031 39.46875 33.84375 39.46875 32.375 C 39.46875 31.640625 40.0625 31.058594 41.214844 31.058594 C 41.460938 31.058594 41.75 31.09375 42.007812 31.136719 L 41.980469 31.878906 C 41.726562 31.800781 41.425781 31.761719 41.15625 31.761719 C 40.648438 31.761719 40.402344 31.964844 40.402344 32.289062 C 40.402344 33.109375 42.277344 32.691406 42.277344 34.097656 C 42.277344 34.890625 41.574219 35.464844 40.4375 35.464844 "/>
<path fill-rule="evenodd" fill="rgb(13.729858%, 12.159729%, 12.548828%)" fill-opacity="1" d="M 44.285156 35.464844 C 43.972656 35.464844 43.65625 35.429688 43.394531 35.378906 L 43.417969 34.609375 C 43.683594 34.6875 44.015625 34.746094 44.339844 34.746094 C 44.835938 34.746094 45.175781 34.535156 45.175781 34.183594 C 45.175781 33.332031 43.316406 33.84375 43.316406 32.375 C 43.316406 31.640625 43.914062 31.058594 45.066406 31.058594 C 45.3125 31.058594 45.601562 31.09375 45.855469 31.136719 L 45.832031 31.878906 C 45.574219 31.800781 45.277344 31.761719 45.003906 31.761719 C 44.5 31.761719 44.253906 31.964844 44.253906 32.289062 C 44.253906 33.109375 46.128906 32.691406 46.128906 34.097656 C 46.128906 34.890625 45.421875 35.464844 44.285156 35.464844 "/>
<path fill-rule="evenodd" fill="rgb(13.729858%, 12.159729%, 12.548828%)" fill-opacity="1" d="M 47.90625 30.511719 C 47.582031 30.511719 47.320312 30.257812 47.320312 29.941406 C 47.320312 29.625 47.582031 29.371094 47.90625 29.371094 C 48.21875 29.371094 48.480469 29.617188 48.480469 29.941406 C 48.480469 30.257812 48.21875 30.511719 47.90625 30.511719 Z M 47.449219 35.371094 L 47.449219 31.140625 L 48.355469 31.140625 L 48.355469 35.371094 L 47.449219 35.371094 "/>
<path fill-rule="evenodd" fill="rgb(13.729858%, 12.159729%, 12.548828%)" fill-opacity="1" d="M 50.644531 35.464844 C 50.328125 35.464844 50.015625 35.429688 49.75 35.378906 L 49.777344 34.609375 C 50.039062 34.6875 50.371094 34.746094 50.695312 34.746094 C 51.191406 34.746094 51.535156 34.535156 51.535156 34.183594 C 51.535156 33.332031 49.675781 33.84375 49.675781 32.375 C 49.675781 31.640625 50.269531 31.058594 51.421875 31.058594 C 51.667969 31.058594 51.960938 31.09375 52.214844 31.136719 L 52.1875 31.878906 C 51.933594 31.800781 51.636719 31.761719 51.363281 31.761719 C 50.859375 31.761719 50.609375 31.964844 50.609375 32.289062 C 50.609375 33.109375 52.484375 32.691406 52.484375 34.097656 C 52.484375 34.890625 51.78125 35.464844 50.644531 35.464844 "/>
<path fill-rule="evenodd" fill="rgb(13.729858%, 12.159729%, 12.548828%)" fill-opacity="1" d="M 55.339844 35.449219 C 54.253906 35.449219 53.460938 34.914062 53.460938 33.398438 C 53.460938 32.046875 54.152344 31.074219 55.605469 31.074219 C 55.917969 31.074219 56.242188 31.117188 56.523438 31.199219 L 56.429688 31.988281 C 56.171875 31.894531 55.886719 31.824219 55.578125 31.824219 C 54.804688 31.824219 54.414062 32.398438 54.414062 33.296875 C 54.414062 34.078125 54.695312 34.667969 55.535156 34.667969 C 55.859375 34.667969 56.207031 34.589844 56.453125 34.460938 L 56.53125 35.234375 C 56.25 35.347656 55.808594 35.449219 55.339844 35.449219 "/>
<path fill-rule="evenodd" fill="rgb(13.729858%, 12.159729%, 12.548828%)" fill-opacity="1" d="M 60.367188 35.371094 L 60.367188 32.644531 C 60.367188 32.113281 60.222656 31.808594 59.742188 31.808594 C 59.109375 31.808594 58.648438 32.480469 58.648438 33.335938 L 58.648438 35.371094 L 57.742188 35.371094 L 57.742188 29.167969 L 58.648438 29.167969 L 58.648438 31.074219 C 58.648438 31.335938 58.628906 31.691406 58.570312 31.917969 L 58.589844 31.925781 C 58.832031 31.402344 59.332031 31.058594 60.011719 31.058594 C 60.972656 31.058594 61.269531 31.65625 61.269531 32.40625 L 61.269531 35.371094 L 60.367188 35.371094 "/>
<path fill-rule="evenodd" fill="rgb(13.729858%, 12.159729%, 12.548828%)" fill-opacity="1" d="M 65.273438 32.667969 L 63.492188 32.667969 C 63.570312 32.101562 63.921875 31.730469 64.429688 31.730469 C 64.960938 31.730469 65.289062 32.09375 65.273438 32.667969 Z M 66.179688 32.882812 C 66.179688 31.882812 65.664062 31.058594 64.464844 31.058594 C 63.238281 31.058594 62.539062 32.007812 62.539062 33.28125 C 62.539062 34.789062 63.265625 35.464844 64.574219 35.464844 C 65.089844 35.464844 65.605469 35.371094 66.027344 35.195312 L 65.945312 34.472656 C 65.597656 34.644531 65.148438 34.746094 64.71875 34.746094 C 63.882812 34.746094 63.449219 34.296875 63.476562 33.308594 L 66.15625 33.308594 C 66.171875 33.144531 66.179688 33 66.179688 32.882812 "/>
<path fill-rule="evenodd" fill="rgb(13.729858%, 12.159729%, 12.548828%)" fill-opacity="1" d="M 71.285156 30.417969 L 71.285156 35.371094 L 70.363281 35.371094 L 70.363281 30.417969 L 68.789062 30.417969 L 68.789062 29.636719 L 72.867188 29.636719 L 72.867188 30.417969 L 71.285156 30.417969 "/>
<path fill-rule="evenodd" fill="rgb(13.729858%, 12.159729%, 12.548828%)" fill-opacity="1" d="M 75.617188 32.667969 L 73.835938 32.667969 C 73.910156 32.101562 74.265625 31.730469 74.773438 31.730469 C 75.304688 31.730469 75.632812 32.09375 75.617188 32.667969 Z M 76.523438 32.882812 C 76.523438 31.882812 76.003906 31.058594 74.804688 31.058594 C 73.578125 31.058594 72.882812 32.007812 72.882812 33.28125 C 72.882812 34.789062 73.605469 35.464844 74.914062 35.464844 C 75.429688 35.464844 75.945312 35.371094 76.371094 35.195312 L 76.285156 34.472656 C 75.9375 34.644531 75.488281 34.746094 75.058594 34.746094 C 74.222656 34.746094 73.792969 34.296875 73.816406 33.308594 L 76.496094 33.308594 C 76.511719 33.144531 76.523438 33 76.523438 32.882812 "/>
<path fill-rule="evenodd" fill="rgb(13.729858%, 12.159729%, 12.548828%)" fill-opacity="1" d="M 79.375 35.449219 C 78.289062 35.449219 77.496094 34.914062 77.496094 33.398438 C 77.496094 32.046875 78.183594 31.074219 79.640625 31.074219 C 79.953125 31.074219 80.277344 31.117188 80.558594 31.199219 L 80.464844 31.988281 C 80.210938 31.894531 79.917969 31.824219 79.613281 31.824219 C 78.839844 31.824219 78.449219 32.398438 78.449219 33.296875 C 78.449219 34.078125 78.730469 34.667969 79.570312 34.667969 C 79.894531 34.667969 80.242188 34.589844 80.488281 34.460938 L 80.566406 35.234375 C 80.285156 35.347656 79.84375 35.449219 79.375 35.449219 "/>
<path fill-rule="evenodd" fill="rgb(13.729858%, 12.159729%, 12.548828%)" fill-opacity="1" d="M 84.402344 35.371094 L 84.402344 32.644531 C 84.402344 32.113281 84.257812 31.808594 83.777344 31.808594 C 83.144531 31.808594 82.683594 32.480469 82.683594 33.335938 L 82.683594 35.371094 L 81.777344 35.371094 L 81.777344 29.167969 L 82.683594 29.167969 L 82.683594 31.074219 C 82.683594 31.335938 82.664062 31.691406 82.605469 31.917969 L 82.621094 31.925781 C 82.867188 31.402344 83.363281 31.058594 84.046875 31.058594 C 85.007812 31.058594 85.304688 31.65625 85.304688 32.40625 L 85.304688 35.371094 L 84.402344 35.371094 "/>
<path fill-rule="evenodd" fill="rgb(13.729858%, 12.159729%, 12.548828%)" fill-opacity="1" d="M 89.542969 35.371094 L 89.542969 32.644531 C 89.542969 32.113281 89.402344 31.808594 88.921875 31.808594 C 88.289062 31.808594 87.824219 32.480469 87.824219 33.324219 L 87.824219 35.371094 L 86.917969 35.371094 L 86.917969 31.144531 L 87.78125 31.144531 C 87.78125 31.359375 87.765625 31.722656 87.722656 31.960938 L 87.730469 31.96875 C 87.976562 31.429688 88.480469 31.058594 89.191406 31.058594 C 90.148438 31.058594 90.449219 31.65625 90.449219 32.40625 L 90.449219 35.371094 L 89.542969 35.371094 "/>
<path fill-rule="evenodd" fill="rgb(13.729858%, 12.159729%, 12.548828%)" fill-opacity="1" d="M 93.09375 29.941406 C 93.09375 29.617188 92.832031 29.371094 92.519531 29.371094 C 92.195312 29.371094 91.933594 29.625 91.933594 29.941406 C 91.933594 30.257812 92.195312 30.511719 92.519531 30.511719 C 92.832031 30.511719 93.09375 30.257812 93.09375 29.941406 Z M 92.96875 35.371094 L 92.96875 31.140625 L 92.0625 31.140625 L 92.0625 35.371094 L 92.96875 35.371094 "/>
<path fill-rule="evenodd" fill="rgb(13.729858%, 12.159729%, 12.548828%)" fill-opacity="1" d="M 95.257812 35.464844 C 94.941406 35.464844 94.628906 35.429688 94.363281 35.378906 L 94.390625 34.609375 C 94.652344 34.6875 94.984375 34.746094 95.308594 34.746094 C 95.804688 34.746094 96.148438 34.535156 96.148438 34.183594 C 96.148438 33.332031 94.289062 33.84375 94.289062 32.375 C 94.289062 31.640625 94.882812 31.058594 96.035156 31.058594 C 96.28125 31.058594 96.570312 31.09375 96.828125 31.136719 L 96.800781 31.878906 C 96.546875 31.800781 96.25 31.761719 95.976562 31.761719 C 95.472656 31.761719 95.222656 31.964844 95.222656 32.289062 C 95.222656 33.109375 97.097656 32.691406 97.097656 34.097656 C 97.097656 34.890625 96.394531 35.464844 95.257812 35.464844 "/>
<path fill-rule="evenodd" fill="rgb(13.729858%, 12.159729%, 12.548828%)" fill-opacity="1" d="M 99.953125 35.449219 C 98.867188 35.449219 98.074219 34.914062 98.074219 33.398438 C 98.074219 32.046875 98.765625 31.074219 100.21875 31.074219 C 100.53125 31.074219 100.855469 31.117188 101.136719 31.199219 L 101.042969 31.988281 C 100.785156 31.894531 100.496094 31.824219 100.191406 31.824219 C 99.417969 31.824219 99.027344 32.398438 99.027344 33.296875 C 99.027344 34.078125 99.308594 34.667969 100.148438 34.667969 C 100.472656 34.667969 100.820312 34.589844 101.066406 34.460938 L 101.144531 35.234375 C 100.863281 35.347656 100.421875 35.449219 99.953125 35.449219 "/>
<path fill-rule="evenodd" fill="rgb(13.729858%, 12.159729%, 12.548828%)" fill-opacity="1" d="M 104.980469 35.371094 L 104.980469 32.644531 C 104.980469 32.113281 104.835938 31.808594 104.355469 31.808594 C 103.722656 31.808594 103.261719 32.480469 103.261719 33.335938 L 103.261719 35.371094 L 102.355469 35.371094 L 102.355469 29.167969 L 103.261719 29.167969 L 103.261719 31.074219 C 103.261719 31.335938 103.242188 31.691406 103.183594 31.917969 L 103.199219 31.925781 C 103.445312 31.402344 103.941406 31.058594 104.628906 31.058594 C 105.585938 31.058594 105.882812 31.65625 105.882812 32.40625 L 105.882812 35.371094 L 104.980469 35.371094 "/>
<path fill-rule="evenodd" fill="rgb(13.729858%, 12.159729%, 12.548828%)" fill-opacity="1" d="M 109.886719 32.667969 L 108.105469 32.667969 C 108.183594 32.101562 108.535156 31.730469 109.042969 31.730469 C 109.574219 31.730469 109.902344 32.09375 109.886719 32.667969 Z M 110.792969 32.882812 C 110.792969 31.882812 110.277344 31.058594 109.078125 31.058594 C 107.851562 31.058594 107.152344 32.007812 107.152344 33.28125 C 107.152344 34.789062 107.878906 35.464844 109.1875 35.464844 C 109.703125 35.464844 110.21875 35.371094 110.640625 35.195312 L 110.554688 34.472656 C 110.210938 34.644531 109.761719 34.746094 109.328125 34.746094 C 108.492188 34.746094 108.0625 34.296875 108.089844 33.308594 L 110.769531 33.308594 C 110.785156 33.144531 110.792969 33 110.792969 32.882812 "/>
<path fill-rule="evenodd" fill="rgb(13.729858%, 12.159729%, 12.548828%)" fill-opacity="1" d="M 117.878906 35.371094 L 117.878906 32.792969 L 115.160156 32.792969 L 115.160156 35.371094 L 114.238281 35.371094 L 114.238281 29.636719 L 115.160156 29.636719 L 115.160156 31.996094 L 117.878906 31.996094 L 117.878906 29.636719 L 118.785156 29.636719 L 118.785156 35.371094 L 117.878906 35.371094 "/>
<path fill-rule="evenodd" fill="rgb(13.729858%, 12.159729%, 12.548828%)" fill-opacity="1" d="M 123.136719 33.234375 C 123.136719 34.21875 122.640625 34.683594 122.054688 34.683594 C 121.351562 34.683594 120.976562 34.175781 120.976562 33.214844 C 120.976562 32.238281 121.511719 31.808594 122.0625 31.808594 C 122.785156 31.808594 123.136719 32.324219 123.136719 33.234375 Z M 124.070312 33.171875 C 124.070312 31.675781 123.269531 31.058594 122.140625 31.058594 C 120.859375 31.058594 120.039062 32.023438 120.039062 33.308594 C 120.039062 34.808594 120.800781 35.464844 121.972656 35.464844 C 123.21875 35.464844 124.070312 34.484375 124.070312 33.171875 "/>
<path fill-rule="evenodd" fill="rgb(13.729858%, 12.159729%, 12.548828%)" fill-opacity="1" d="M 126.871094 35.449219 C 125.785156 35.449219 124.996094 34.914062 124.996094 33.398438 C 124.996094 32.046875 125.683594 31.074219 127.136719 31.074219 C 127.449219 31.074219 127.773438 31.117188 128.054688 31.199219 L 127.960938 31.988281 C 127.707031 31.894531 127.417969 31.824219 127.109375 31.824219 C 126.339844 31.824219 125.945312 32.398438 125.945312 33.296875 C 125.945312 34.078125 126.226562 34.667969 127.066406 34.667969 C 127.390625 34.667969 127.738281 34.589844 127.984375 34.460938 L 128.0625 35.234375 C 127.78125 35.347656 127.339844 35.449219 126.871094 35.449219 "/>
<path fill-rule="evenodd" fill="rgb(13.729858%, 12.159729%, 12.548828%)" fill-opacity="1" d="M 131.898438 35.371094 L 131.898438 32.644531 C 131.898438 32.113281 131.757812 31.808594 131.277344 31.808594 C 130.644531 31.808594 130.179688 32.480469 130.179688 33.335938 L 130.179688 35.371094 L 129.273438 35.371094 L 129.273438 29.167969 L 130.179688 29.167969 L 130.179688 31.074219 C 130.179688 31.335938 130.160156 31.691406 130.101562 31.917969 L 130.121094 31.925781 C 130.363281 31.402344 130.863281 31.058594 131.546875 31.058594 C 132.503906 31.058594 132.804688 31.65625 132.804688 32.40625 L 132.804688 35.371094 L 131.898438 35.371094 "/>
<path fill-rule="evenodd" fill="rgb(13.729858%, 12.159729%, 12.548828%)" fill-opacity="1" d="M 135.105469 35.464844 C 134.789062 35.464844 134.476562 35.429688 134.210938 35.378906 L 134.238281 34.609375 C 134.5 34.6875 134.832031 34.746094 135.15625 34.746094 C 135.652344 34.746094 135.992188 34.535156 135.992188 34.183594 C 135.992188 33.332031 134.136719 33.84375 134.136719 32.375 C 134.136719 31.640625 134.730469 31.058594 135.882812 31.058594 C 136.128906 31.058594 136.417969 31.09375 136.675781 31.136719 L 136.648438 31.878906 C 136.394531 31.800781 136.097656 31.761719 135.824219 31.761719 C 135.320312 31.761719 135.070312 31.964844 135.070312 32.289062 C 135.070312 33.109375 136.945312 32.691406 136.945312 34.097656 C 136.945312 34.890625 136.242188 35.464844 135.105469 35.464844 "/>
<path fill-rule="evenodd" fill="rgb(13.729858%, 12.159729%, 12.548828%)" fill-opacity="1" d="M 139.800781 35.449219 C 138.714844 35.449219 137.921875 34.914062 137.921875 33.398438 C 137.921875 32.046875 138.609375 31.074219 140.066406 31.074219 C 140.378906 31.074219 140.703125 31.117188 140.984375 31.199219 L 140.890625 31.988281 C 140.632812 31.894531 140.34375 31.824219 140.039062 31.824219 C 139.265625 31.824219 138.875 32.398438 138.875 33.296875 C 138.875 34.078125 139.15625 34.667969 139.996094 34.667969 C 140.320312 34.667969 140.667969 34.589844 140.914062 34.460938 L 140.992188 35.234375 C 140.710938 35.347656 140.269531 35.449219 139.800781 35.449219 "/>
<path fill-rule="evenodd" fill="rgb(13.729858%, 12.159729%, 12.548828%)" fill-opacity="1" d="M 144.828125 35.371094 L 144.828125 32.644531 C 144.828125 32.113281 144.683594 31.808594 144.203125 31.808594 C 143.570312 31.808594 143.109375 32.480469 143.109375 33.335938 L 143.109375 35.371094 L 142.203125 35.371094 L 142.203125 29.167969 L 143.109375 29.167969 L 143.109375 31.074219 C 143.109375 31.335938 143.089844 31.691406 143.03125 31.917969 L 143.046875 31.925781 C 143.292969 31.402344 143.789062 31.058594 144.472656 31.058594 C 145.433594 31.058594 145.730469 31.65625 145.730469 32.40625 L 145.730469 35.371094 L 144.828125 35.371094 "/>
<path fill-rule="evenodd" fill="rgb(13.729858%, 12.159729%, 12.548828%)" fill-opacity="1" d="M 150.011719 35.378906 C 150.011719 35.160156 150.027344 34.796875 150.070312 34.5625 L 150.0625 34.550781 C 149.816406 35.09375 149.304688 35.464844 148.589844 35.464844 C 147.628906 35.464844 147.328125 34.867188 147.328125 34.117188 L 147.328125 31.152344 L 148.234375 31.152344 L 148.234375 33.878906 C 148.234375 34.40625 148.378906 34.714844 148.863281 34.714844 C 149.5 34.714844 149.96875 34.042969 149.96875 33.199219 L 149.96875 31.152344 L 150.875 31.152344 L 150.875 35.378906 L 150.011719 35.378906 "/>
<path fill-rule="evenodd" fill="rgb(13.729858%, 12.159729%, 12.548828%)" fill-opacity="1" d="M 152.484375 35.371094 L 153.390625 35.371094 L 153.390625 29.167969 L 152.484375 29.167969 Z M 152.484375 35.371094 "/>
<path fill-rule="evenodd" fill="rgb(13.729858%, 12.159729%, 12.548828%)" fill-opacity="1" d="M 157.382812 32.667969 L 155.601562 32.667969 C 155.679688 32.101562 156.035156 31.730469 156.539062 31.730469 C 157.070312 31.730469 157.402344 32.09375 157.382812 32.667969 Z M 158.289062 32.882812 C 158.289062 31.882812 157.773438 31.058594 156.574219 31.058594 C 155.347656 31.058594 154.652344 32.007812 154.652344 33.28125 C 154.652344 34.789062 155.375 35.464844 156.683594 35.464844 C 157.199219 35.464844 157.714844 35.371094 158.136719 35.195312 L 158.054688 34.472656 C 157.707031 34.644531 157.257812 34.746094 156.828125 34.746094 C 155.992188 34.746094 155.5625 34.296875 155.585938 33.308594 L 158.265625 33.308594 C 158.28125 33.144531 158.289062 33 158.289062 32.882812 "/>
<path fill-rule="evenodd" fill="rgb(13.729858%, 12.159729%, 12.548828%)" fill-opacity="1" d="M 161.453125 35.371094 L 161.453125 34.667969 L 163.710938 31.074219 C 163.847656 30.855469 163.984375 30.660156 164.136719 30.453125 C 163.890625 30.464844 163.558594 30.464844 162.972656 30.464844 L 161.539062 30.464844 L 161.539062 29.636719 L 165.230469 29.636719 L 165.230469 30.371094 L 162.855469 34.085938 C 162.761719 34.246094 162.667969 34.382812 162.558594 34.542969 C 162.710938 34.527344 163.167969 34.527344 163.898438 34.527344 L 165.265625 34.527344 L 165.265625 35.371094 L 161.453125 35.371094 "/>
<path fill-rule="evenodd" fill="rgb(13.729858%, 12.159729%, 12.548828%)" fill-opacity="1" d="M 169.507812 29.835938 C 169.507812 29.554688 169.277344 29.324219 168.996094 29.324219 C 168.707031 29.324219 168.480469 29.554688 168.480469 29.835938 C 168.480469 30.125 168.707031 30.355469 168.996094 30.355469 C 169.277344 30.355469 169.507812 30.125 169.507812 29.835938 Z M 167.851562 29.835938 C 167.851562 29.554688 167.621094 29.324219 167.332031 29.324219 C 167.042969 29.324219 166.820312 29.554688 166.820312 29.835938 C 166.820312 30.125 167.042969 30.355469 167.332031 30.355469 C 167.621094 30.355469 167.851562 30.125 167.851562 29.835938 L 169.972656 35.378906 L 169.972656 31.152344 L 169.066406 31.152344 L 169.066406 33.199219 C 169.066406 34.042969 168.597656 34.714844 167.960938 34.714844 C 167.476562 34.714844 167.332031 34.40625 167.332031 33.878906 L 167.332031 31.152344 L 166.429688 31.152344 L 166.429688 34.117188 C 166.429688 34.867188 166.726562 35.464844 167.6875 35.464844 C 168.402344 35.464844 168.914062 35.09375 169.160156 34.550781 L 169.167969 34.5625 C 169.125 34.796875 169.109375 35.160156 169.109375 35.378906 L 169.972656 35.378906 L 167.851562 29.835938 "/>
<path fill-rule="evenodd" fill="rgb(13.729858%, 12.159729%, 12.548828%)" fill-opacity="1" d="M 173.738281 31.949219 C 172.898438 31.796875 172.492188 32.382812 172.492188 33.652344 L 172.492188 35.371094 L 171.585938 35.371094 L 171.585938 31.144531 L 172.449219 31.144531 C 172.449219 31.382812 172.421875 31.753906 172.363281 32.078125 L 172.382812 32.078125 C 172.566406 31.507812 172.992188 30.980469 173.78125 31.058594 L 173.738281 31.949219 "/>
<path fill-rule="evenodd" fill="rgb(13.729858%, 12.159729%, 12.548828%)" fill-opacity="1" d="M 175.332031 30.511719 C 175.011719 30.511719 174.746094 30.257812 174.746094 29.941406 C 174.746094 29.625 175.011719 29.371094 175.332031 29.371094 C 175.644531 29.371094 175.90625 29.617188 175.90625 29.941406 C 175.90625 30.257812 175.644531 30.511719 175.332031 30.511719 Z M 174.875 35.371094 L 174.875 31.140625 L 175.78125 31.140625 L 175.78125 35.371094 L 174.875 35.371094 "/>
<path fill-rule="evenodd" fill="rgb(13.729858%, 12.159729%, 12.548828%)" fill-opacity="1" d="M 178.917969 35.449219 C 177.828125 35.449219 177.039062 34.914062 177.039062 33.398438 C 177.039062 32.046875 177.726562 31.074219 179.179688 31.074219 C 179.496094 31.074219 179.816406 31.117188 180.097656 31.199219 L 180.003906 31.988281 C 179.75 31.894531 179.460938 31.824219 179.15625 31.824219 C 178.382812 31.824219 177.988281 32.398438 177.988281 33.296875 C 177.988281 34.078125 178.269531 34.667969 179.113281 34.667969 C 179.433594 34.667969 179.785156 34.589844 180.03125 34.460938 L 180.105469 35.234375 C 179.824219 35.347656 179.382812 35.449219 178.917969 35.449219 "/>
<path fill-rule="evenodd" fill="rgb(13.729858%, 12.159729%, 12.548828%)" fill-opacity="1" d="M 183.941406 35.371094 L 183.941406 32.644531 C 183.941406 32.113281 183.800781 31.808594 183.320312 31.808594 C 182.6875 31.808594 182.222656 32.480469 182.222656 33.335938 L 182.222656 35.371094 L 181.316406 35.371094 L 181.316406 29.167969 L 182.222656 29.167969 L 182.222656 31.074219 C 182.222656 31.335938 182.207031 31.691406 182.148438 31.917969 L 182.164062 31.925781 C 182.410156 31.402344 182.90625 31.058594 183.589844 31.058594 C 184.546875 31.058594 184.847656 31.65625 184.847656 32.40625 L 184.847656 35.371094 L 183.941406 35.371094 "/>
<path fill-rule="evenodd" fill="rgb(13.729858%, 12.159729%, 12.548828%)" fill-opacity="1" d="M 9.074219 46.863281 C 8.660156 46.863281 8.25 46.8125 7.917969 46.726562 L 7.96875 45.855469 C 8.292969 45.972656 8.746094 46.066406 9.160156 46.066406 C 9.78125 46.066406 10.289062 45.800781 10.289062 45.175781 C 10.289062 43.960938 7.789062 44.476562 7.789062 42.609375 C 7.789062 41.617188 8.566406 40.941406 9.894531 40.941406 C 10.230469 40.941406 10.578125 40.984375 10.929688 41.042969 L 10.878906 41.855469 C 10.546875 41.753906 10.179688 41.691406 9.84375 41.691406 C 9.132812 41.691406 8.769531 42.027344 8.769531 42.507812 C 8.769531 43.660156 11.269531 43.234375 11.269531 45.039062 C 11.269531 46.101562 10.433594 46.863281 9.074219 46.863281 "/>
<path fill-rule="evenodd" fill="rgb(13.729858%, 12.159729%, 12.548828%)" fill-opacity="1" d="M 17.105469 46.769531 L 16.101562 46.769531 L 15.371094 44.5625 C 15.277344 44.285156 15.199219 43.996094 15.121094 43.671875 L 15.113281 43.671875 C 15.03125 44.046875 14.9375 44.378906 14.824219 44.734375 L 14.1875 46.769531 L 13.226562 46.769531 L 11.925781 42.554688 L 12.921875 42.554688 L 13.480469 44.511719 C 13.59375 44.910156 13.710938 45.308594 13.796875 45.691406 L 13.804688 45.691406 C 13.890625 45.277344 13.992188 44.902344 14.101562 44.539062 L 14.730469 42.554688 L 15.652344 42.554688 L 16.289062 44.503906 C 16.449219 45.015625 16.535156 45.328125 16.617188 45.691406 L 16.628906 45.691406 C 16.714844 45.300781 16.796875 44.972656 16.925781 44.546875 L 17.511719 42.554688 L 18.457031 42.554688 L 17.105469 46.769531 "/>
<path fill-rule="evenodd" fill="rgb(13.729858%, 12.159729%, 12.548828%)" fill-opacity="1" d="M 19.964844 41.910156 C 19.644531 41.910156 19.382812 41.65625 19.382812 41.339844 C 19.382812 41.027344 19.644531 40.773438 19.964844 40.773438 C 20.28125 40.773438 20.542969 41.019531 20.542969 41.339844 C 20.542969 41.65625 20.28125 41.910156 19.964844 41.910156 Z M 19.507812 46.769531 L 19.507812 42.539062 L 20.414062 42.539062 L 20.414062 46.769531 L 19.507812 46.769531 "/>
<path fill-rule="evenodd" fill="rgb(13.729858%, 12.159729%, 12.548828%)" fill-opacity="1" d="M 22.707031 46.863281 C 22.390625 46.863281 22.074219 46.828125 21.8125 46.777344 L 21.839844 46.011719 C 22.101562 46.085938 22.433594 46.148438 22.757812 46.148438 C 23.253906 46.148438 23.59375 45.933594 23.59375 45.585938 C 23.59375 44.730469 21.734375 45.242188 21.734375 43.773438 C 21.734375 43.039062 22.332031 42.460938 23.484375 42.460938 C 23.730469 42.460938 24.019531 42.492188 24.273438 42.535156 L 24.25 43.28125 C 23.996094 43.203125 23.699219 43.160156 23.421875 43.160156 C 22.917969 43.160156 22.671875 43.363281 22.671875 43.691406 C 22.671875 44.507812 24.546875 44.089844 24.546875 45.496094 C 24.546875 46.289062 23.84375 46.863281 22.707031 46.863281 "/>
<path fill-rule="evenodd" fill="rgb(13.729858%, 12.159729%, 12.548828%)" fill-opacity="1" d="M 26.554688 46.863281 C 26.242188 46.863281 25.925781 46.828125 25.664062 46.777344 L 25.6875 46.011719 C 25.953125 46.085938 26.285156 46.148438 26.605469 46.148438 C 27.101562 46.148438 27.445312 45.933594 27.445312 45.585938 C 27.445312 44.730469 25.585938 45.242188 25.585938 43.773438 C 25.585938 43.039062 26.179688 42.460938 27.335938 42.460938 C 27.582031 42.460938 27.871094 42.492188 28.125 42.535156 L 28.101562 43.28125 C 27.84375 43.203125 27.546875 43.160156 27.273438 43.160156 C 26.769531 43.160156 26.523438 43.363281 26.523438 43.691406 C 26.523438 44.507812 28.398438 44.089844 28.398438 45.496094 C 28.398438 46.289062 27.691406 46.863281 26.554688 46.863281 "/>
<path fill-rule="evenodd" fill="rgb(13.729858%, 12.159729%, 12.548828%)" fill-opacity="1" d="M 32.765625 41.816406 L 32.765625 43.503906 L 34.71875 43.503906 L 34.71875 44.253906 L 32.765625 44.253906 L 32.765625 46.769531 L 31.84375 46.769531 L 31.84375 41.035156 L 34.828125 41.035156 L 34.828125 41.816406 L 32.765625 41.816406 "/>
<path fill-rule="evenodd" fill="rgb(13.729858%, 12.159729%, 12.548828%)" fill-opacity="1" d="M 38.277344 44.070312 L 36.496094 44.070312 C 36.570312 43.503906 36.925781 43.128906 37.433594 43.128906 C 37.964844 43.128906 38.292969 43.492188 38.277344 44.070312 Z M 39.183594 44.28125 C 39.183594 43.28125 38.667969 42.457031 37.46875 42.457031 C 36.242188 42.457031 35.542969 43.410156 35.542969 44.679688 C 35.542969 46.191406 36.265625 46.863281 37.578125 46.863281 C 38.089844 46.863281 38.605469 46.769531 39.03125 46.59375 L 38.945312 45.871094 C 38.597656 46.042969 38.152344 46.148438 37.71875 46.148438 C 36.882812 46.148438 36.453125 45.699219 36.480469 44.707031 L 39.15625 44.707031 C 39.175781 44.546875 39.183594 44.402344 39.183594 44.28125 "/>
<path fill-rule="evenodd" fill="rgb(13.729858%, 12.159729%, 12.548828%)" fill-opacity="1" d="M 43.003906 44.585938 C 43.003906 45.3125 42.628906 46.117188 41.957031 46.117188 C 41.375 46.117188 41.109375 45.636719 41.109375 44.78125 C 41.109375 43.636719 41.605469 43.191406 42.332031 43.191406 C 42.550781 43.191406 42.773438 43.21875 43.003906 43.269531 Z M 43.90625 46.777344 L 43.90625 40.570312 L 43.003906 40.570312 L 43.003906 42.507812 C 42.773438 42.492188 42.570312 42.476562 42.363281 42.476562 C 40.992188 42.476562 40.15625 43.40625 40.15625 44.867188 C 40.15625 46.097656 40.671875 46.863281 41.707031 46.863281 C 42.363281 46.863281 42.859375 46.507812 43.089844 45.988281 L 43.105469 45.988281 C 43.0625 46.226562 43.046875 46.558594 43.046875 46.777344 L 43.90625 46.777344 "/>
<path fill-rule="evenodd" fill="rgb(13.729858%, 12.159729%, 12.548828%)" fill-opacity="1" d="M 47.898438 44.070312 L 46.117188 44.070312 C 46.195312 43.503906 46.546875 43.128906 47.054688 43.128906 C 47.585938 43.128906 47.914062 43.492188 47.898438 44.070312 Z M 48.804688 44.28125 C 48.804688 43.28125 48.289062 42.457031 47.089844 42.457031 C 45.863281 42.457031 45.164062 43.410156 45.164062 44.679688 C 45.164062 46.191406 45.886719 46.863281 47.199219 46.863281 C 47.714844 46.863281 48.230469 46.769531 48.652344 46.59375 L 48.566406 45.871094 C 48.21875 46.042969 47.773438 46.148438 47.34375 46.148438 C 46.507812 46.148438 46.074219 45.699219 46.101562 44.707031 L 48.78125 44.707031 C 48.796875 44.546875 48.804688 44.402344 48.804688 44.28125 "/>
<path fill-rule="evenodd" fill="rgb(13.729858%, 12.159729%, 12.548828%)" fill-opacity="1" d="M 52.28125 43.347656 C 51.4375 43.195312 51.03125 43.78125 51.03125 45.050781 L 51.03125 46.769531 L 50.125 46.769531 L 50.125 42.542969 L 50.988281 42.542969 C 50.988281 42.78125 50.960938 43.152344 50.902344 43.476562 L 50.917969 43.476562 C 51.105469 42.90625 51.53125 42.382812 52.320312 42.457031 L 52.28125 43.347656 "/>
<path fill-rule="evenodd" fill="rgb(13.729858%, 12.159729%, 12.548828%)" fill-opacity="1" d="M 55.4375 44.949219 C 55.4375 45.550781 55.019531 46.148438 54.394531 46.148438 C 54.035156 46.148438 53.8125 45.945312 53.8125 45.628906 C 53.8125 45.265625 54.105469 44.863281 55.4375 44.863281 Z M 56.371094 46.777344 C 56.351562 46.417969 56.34375 45.984375 56.34375 45.621094 L 56.34375 43.894531 C 56.34375 43.023438 55.988281 42.460938 54.695312 42.460938 C 54.148438 42.460938 53.617188 42.578125 53.203125 42.742188 L 53.285156 43.519531 C 53.644531 43.296875 54.15625 43.175781 54.550781 43.175781 C 55.214844 43.175781 55.4375 43.449219 55.4375 43.980469 L 55.4375 44.253906 C 53.90625 44.253906 52.9375 44.8125 52.9375 45.78125 C 52.9375 46.453125 53.398438 46.863281 54.121094 46.863281 C 54.796875 46.863281 55.328125 46.488281 55.53125 45.984375 L 55.539062 45.996094 C 55.507812 46.222656 55.496094 46.503906 55.496094 46.777344 L 56.371094 46.777344 "/>
<path fill-rule="evenodd" fill="rgb(13.729858%, 12.159729%, 12.548828%)" fill-opacity="1" d="M 57.96875 46.769531 L 58.875 46.769531 L 58.875 40.570312 L 57.96875 40.570312 Z M 57.96875 46.769531 "/>
<path fill-rule="evenodd" fill="rgb(13.729858%, 12.159729%, 12.548828%)" fill-opacity="1" d="M 62.601562 46.769531 L 63.523438 46.769531 L 63.523438 41.035156 L 62.601562 41.035156 Z M 62.601562 46.769531 "/>
<path fill-rule="evenodd" fill="rgb(13.729858%, 12.159729%, 12.548828%)" fill-opacity="1" d="M 67.761719 46.769531 L 67.761719 44.042969 C 67.761719 43.515625 67.617188 43.207031 67.136719 43.207031 C 66.503906 43.207031 66.039062 43.882812 66.039062 44.726562 L 66.039062 46.769531 L 65.132812 46.769531 L 65.132812 42.542969 L 65.996094 42.542969 C 65.996094 42.761719 65.980469 43.125 65.9375 43.363281 L 65.945312 43.371094 C 66.191406 42.828125 66.699219 42.457031 67.40625 42.457031 C 68.363281 42.457031 68.664062 43.054688 68.664062 43.804688 L 68.664062 46.769531 L 67.761719 46.769531 "/>
<path fill-rule="evenodd" fill="rgb(13.729858%, 12.159729%, 12.548828%)" fill-opacity="1" d="M 70.964844 46.863281 C 70.652344 46.863281 70.335938 46.828125 70.074219 46.777344 L 70.097656 46.011719 C 70.363281 46.085938 70.695312 46.148438 71.015625 46.148438 C 71.511719 46.148438 71.855469 45.933594 71.855469 45.585938 C 71.855469 44.730469 69.996094 45.242188 69.996094 43.773438 C 69.996094 43.039062 70.589844 42.460938 71.742188 42.460938 C 71.992188 42.460938 72.28125 42.492188 72.535156 42.535156 L 72.507812 43.28125 C 72.253906 43.203125 71.957031 43.160156 71.683594 43.160156 C 71.179688 43.160156 70.929688 43.363281 70.929688 43.691406 C 70.929688 44.507812 72.804688 44.089844 72.804688 45.496094 C 72.804688 46.289062 72.101562 46.863281 70.964844 46.863281 "/>
<path fill-rule="evenodd" fill="rgb(13.729858%, 12.159729%, 12.548828%)" fill-opacity="1" d="M 75.46875 46.847656 C 74.570312 46.847656 74.296875 46.496094 74.296875 45.550781 L 74.296875 43.253906 L 73.492188 43.253906 L 73.492188 42.550781 L 74.296875 42.550781 L 74.296875 41.207031 L 75.195312 40.960938 L 75.195312 42.550781 L 76.308594 42.550781 L 76.308594 43.253906 L 75.203125 43.253906 L 75.203125 45.273438 C 75.203125 45.898438 75.332031 46.070312 75.757812 46.070312 C 75.945312 46.070312 76.148438 46.042969 76.308594 46 L 76.308594 46.753906 C 76.0625 46.804688 75.75 46.847656 75.46875 46.847656 "/>
<path fill-rule="evenodd" fill="rgb(13.729858%, 12.159729%, 12.548828%)" fill-opacity="1" d="M 78.027344 41.910156 C 77.703125 41.910156 77.441406 41.65625 77.441406 41.339844 C 77.441406 41.027344 77.703125 40.773438 78.027344 40.773438 C 78.339844 40.773438 78.601562 41.019531 78.601562 41.339844 C 78.601562 41.65625 78.339844 41.910156 78.027344 41.910156 Z M 77.570312 46.769531 L 77.570312 42.539062 L 78.476562 42.539062 L 78.476562 46.769531 L 77.570312 46.769531 "/>
<path fill-rule="evenodd" fill="rgb(13.729858%, 12.159729%, 12.548828%)" fill-opacity="1" d="M 81.417969 46.847656 C 80.519531 46.847656 80.246094 46.496094 80.246094 45.550781 L 80.246094 43.253906 L 79.441406 43.253906 L 79.441406 42.550781 L 80.246094 42.550781 L 80.246094 41.207031 L 81.144531 40.960938 L 81.144531 42.550781 L 82.257812 42.550781 L 82.257812 43.253906 L 81.15625 43.253906 L 81.15625 45.273438 C 81.15625 45.898438 81.28125 46.070312 81.707031 46.070312 C 81.894531 46.070312 82.097656 46.042969 82.257812 46 L 82.257812 46.753906 C 82.011719 46.804688 81.699219 46.847656 81.417969 46.847656 "/>
<path fill-rule="evenodd" fill="rgb(13.729858%, 12.159729%, 12.548828%)" fill-opacity="1" d="M 86.1875 46.78125 C 86.1875 46.5625 86.203125 46.199219 86.246094 45.960938 L 86.238281 45.953125 C 85.988281 46.492188 85.480469 46.863281 84.765625 46.863281 C 83.800781 46.863281 83.503906 46.265625 83.503906 45.519531 L 83.503906 42.554688 L 84.40625 42.554688 L 84.40625 45.28125 C 84.40625 45.808594 84.550781 46.113281 85.039062 46.113281 C 85.675781 46.113281 86.144531 45.441406 86.144531 44.597656 L 86.144531 42.554688 L 87.050781 42.554688 L 87.050781 46.78125 L 86.1875 46.78125 "/>
<path fill-rule="evenodd" fill="rgb(13.729858%, 12.159729%, 12.548828%)" fill-opacity="1" d="M 90.003906 46.847656 C 89.105469 46.847656 88.832031 46.496094 88.832031 45.550781 L 88.832031 43.253906 L 88.027344 43.253906 L 88.027344 42.550781 L 88.832031 42.550781 L 88.832031 41.207031 L 89.730469 40.960938 L 89.730469 42.550781 L 90.84375 42.550781 L 90.84375 43.253906 L 89.738281 43.253906 L 89.738281 45.273438 C 89.738281 45.898438 89.867188 46.070312 90.292969 46.070312 C 90.480469 46.070312 90.683594 46.042969 90.84375 46 L 90.84375 46.753906 C 90.597656 46.804688 90.28125 46.847656 90.003906 46.847656 "/>
<path fill-rule="evenodd" fill="rgb(13.729858%, 12.159729%, 12.548828%)" fill-opacity="1" d="M 94.492188 44.070312 L 92.714844 44.070312 C 92.789062 43.503906 93.144531 43.128906 93.648438 43.128906 C 94.179688 43.128906 94.511719 43.492188 94.492188 44.070312 Z M 95.402344 44.28125 C 95.402344 43.28125 94.882812 42.457031 93.683594 42.457031 C 92.457031 42.457031 91.761719 43.410156 91.761719 44.679688 C 91.761719 46.191406 92.484375 46.863281 93.792969 46.863281 C 94.308594 46.863281 94.824219 46.769531 95.246094 46.59375 L 95.164062 45.871094 C 94.816406 46.042969 94.367188 46.148438 93.9375 46.148438 C 93.101562 46.148438 92.671875 45.699219 92.695312 44.707031 L 95.375 44.707031 C 95.390625 44.546875 95.402344 44.402344 95.402344 44.28125 "/>
<path fill-rule="evenodd" fill="rgb(13.729858%, 12.159729%, 12.548828%)" fill-opacity="1" d="M 101.578125 44.632812 C 101.578125 45.621094 101.085938 46.082031 100.5 46.082031 C 99.796875 46.082031 99.421875 45.578125 99.421875 44.617188 C 99.421875 43.636719 99.957031 43.207031 100.507812 43.207031 C 101.230469 43.207031 101.578125 43.722656 101.578125 44.632812 Z M 102.515625 44.574219 C 102.515625 43.074219 101.714844 42.457031 100.585938 42.457031 C 99.304688 42.457031 98.484375 43.421875 98.484375 44.710938 C 98.484375 46.210938 99.246094 46.863281 100.414062 46.863281 C 101.664062 46.863281 102.515625 45.886719 102.515625 44.574219 "/>
<path fill-rule="evenodd" fill="rgb(13.729858%, 12.159729%, 12.548828%)" fill-opacity="1" d="M 106.285156 41.324219 C 106.097656 41.265625 105.894531 41.238281 105.703125 41.238281 C 105.160156 41.238281 104.914062 41.539062 104.914062 42.210938 L 104.914062 42.550781 L 106.011719 42.550781 L 106.011719 43.253906 L 104.914062 43.253906 L 104.914062 46.769531 L 104.011719 46.769531 L 104.011719 43.253906 L 103.203125 43.253906 L 103.203125 42.550781 L 104.011719 42.550781 L 104.011719 42.226562 C 104.011719 41.0625 104.566406 40.503906 105.664062 40.503906 C 105.902344 40.503906 106.128906 40.53125 106.351562 40.582031 L 106.285156 41.324219 "/>
<path fill-rule="evenodd" fill="rgb(13.729858%, 12.159729%, 12.548828%)" fill-opacity="1" d="M 110.855469 41.816406 L 110.855469 46.769531 L 109.9375 46.769531 L 109.9375 41.816406 L 108.363281 41.816406 L 108.363281 41.035156 L 112.4375 41.035156 L 112.4375 41.816406 L 110.855469 41.816406 "/>
<path fill-rule="evenodd" fill="rgb(13.729858%, 12.159729%, 12.548828%)" fill-opacity="1" d="M 116.070312 44.707031 L 113.390625 44.707031 C 113.363281 45.699219 113.796875 46.148438 114.632812 46.148438 C 115.0625 46.148438 115.511719 46.042969 115.855469 45.871094 L 115.941406 46.59375 C 115.519531 46.769531 115.003906 46.863281 114.488281 46.863281 C 113.175781 46.863281 112.453125 46.191406 112.453125 44.679688 C 112.453125 43.410156 113.152344 42.457031 114.378906 42.457031 C 115.578125 42.457031 116.09375 43.28125 116.09375 44.28125 C 116.09375 44.402344 116.085938 44.546875 116.070312 44.707031 Z M 114.34375 43.128906 C 113.835938 43.128906 113.480469 43.503906 113.40625 44.070312 L 115.1875 44.070312 C 115.203125 43.492188 114.875 43.128906 114.34375 43.128906 "/>
<path fill-rule="evenodd" fill="rgb(13.729858%, 12.159729%, 12.548828%)" fill-opacity="1" d="M 118.949219 46.847656 C 117.859375 46.847656 117.070312 46.3125 117.070312 44.800781 C 117.070312 43.445312 117.757812 42.472656 119.210938 42.472656 C 119.527344 42.472656 119.847656 42.515625 120.128906 42.601562 L 120.035156 43.386719 C 119.78125 43.292969 119.492188 43.222656 119.1875 43.222656 C 118.410156 43.222656 118.019531 43.796875 118.019531 44.699219 C 118.019531 45.476562 118.300781 46.066406 119.144531 46.066406 C 119.464844 46.066406 119.816406 45.992188 120.0625 45.863281 L 120.136719 46.636719 C 119.855469 46.746094 119.414062 46.847656 118.949219 46.847656 "/>
<path fill-rule="evenodd" fill="rgb(13.729858%, 12.159729%, 12.548828%)" fill-opacity="1" d="M 123.972656 46.769531 L 123.972656 44.042969 C 123.972656 43.515625 123.832031 43.207031 123.351562 43.207031 C 122.71875 43.207031 122.253906 43.882812 122.253906 44.734375 L 122.253906 46.769531 L 121.347656 46.769531 L 121.347656 40.570312 L 122.253906 40.570312 L 122.253906 42.476562 C 122.253906 42.734375 122.238281 43.089844 122.179688 43.320312 L 122.195312 43.328125 C 122.441406 42.804688 122.9375 42.457031 123.621094 42.457031 C 124.578125 42.457031 124.878906 43.054688 124.878906 43.804688 L 124.878906 46.769531 L 123.972656 46.769531 "/>
<path fill-rule="evenodd" fill="rgb(13.729858%, 12.159729%, 12.548828%)" fill-opacity="1" d="M 129.117188 46.769531 L 129.117188 44.042969 C 129.117188 43.515625 128.972656 43.207031 128.492188 43.207031 C 127.859375 43.207031 127.398438 43.882812 127.398438 44.726562 L 127.398438 46.769531 L 126.492188 46.769531 L 126.492188 42.542969 L 127.355469 42.542969 C 127.355469 42.761719 127.339844 43.125 127.296875 43.363281 L 127.304688 43.371094 C 127.546875 42.828125 128.054688 42.457031 128.761719 42.457031 C 129.722656 42.457031 130.019531 43.054688 130.019531 43.804688 L 130.019531 46.769531 L 129.117188 46.769531 "/>
<path fill-rule="evenodd" fill="rgb(13.729858%, 12.159729%, 12.548828%)" fill-opacity="1" d="M 134.367188 44.632812 C 134.367188 45.621094 133.875 46.082031 133.289062 46.082031 C 132.585938 46.082031 132.210938 45.578125 132.210938 44.617188 C 132.210938 43.636719 132.746094 43.207031 133.296875 43.207031 C 134.019531 43.207031 134.367188 43.722656 134.367188 44.632812 Z M 135.304688 44.574219 C 135.304688 43.074219 134.503906 42.457031 133.375 42.457031 C 132.09375 42.457031 131.273438 43.421875 131.273438 44.710938 C 131.273438 46.210938 132.035156 46.863281 133.203125 46.863281 C 134.453125 46.863281 135.304688 45.886719 135.304688 44.574219 "/>
<path fill-rule="evenodd" fill="rgb(13.729858%, 12.159729%, 12.548828%)" fill-opacity="1" d="M 136.570312 46.769531 L 137.476562 46.769531 L 137.476562 40.570312 L 136.570312 40.570312 Z M 136.570312 46.769531 "/>
<path fill-rule="evenodd" fill="rgb(13.729858%, 12.159729%, 12.548828%)" fill-opacity="1" d="M 141.8125 44.632812 C 141.8125 45.621094 141.320312 46.082031 140.734375 46.082031 C 140.03125 46.082031 139.65625 45.578125 139.65625 44.617188 C 139.65625 43.636719 140.191406 43.207031 140.742188 43.207031 C 141.464844 43.207031 141.8125 43.722656 141.8125 44.632812 Z M 142.75 44.574219 C 142.75 43.074219 141.949219 42.457031 140.820312 42.457031 C 139.539062 42.457031 138.71875 43.421875 138.71875 44.710938 C 138.71875 46.210938 139.480469 46.863281 140.652344 46.863281 C 141.898438 46.863281 142.75 45.886719 142.75 44.574219 "/>
<path fill-rule="evenodd" fill="rgb(13.729858%, 12.159729%, 12.548828%)" fill-opacity="1" d="M 146.5625 44.03125 C 146.5625 44.582031 146.191406 44.898438 145.621094 44.898438 C 145.011719 44.898438 144.671875 44.574219 144.671875 44.023438 C 144.671875 43.507812 145.03125 43.140625 145.632812 43.140625 C 146.21875 43.140625 146.5625 43.472656 146.5625 44.03125 Z M 147.738281 47.335938 C 147.738281 46.546875 147.21875 46.113281 146.300781 46.113281 L 145.578125 46.113281 C 145.070312 46.113281 144.886719 46.027344 144.886719 45.8125 C 144.886719 45.691406 144.960938 45.5625 145.132812 45.492188 C 145.257812 45.519531 145.453125 45.535156 145.613281 45.535156 C 146.800781 45.535156 147.4375 44.890625 147.4375 43.972656 C 147.4375 43.667969 147.328125 43.414062 147.148438 43.269531 L 147.796875 43.269531 L 147.796875 42.554688 L 146.367188 42.554688 C 146.140625 42.503906 145.929688 42.46875 145.675781 42.46875 C 144.46875 42.46875 143.792969 43.21875 143.792969 44.109375 C 143.792969 44.632812 144.003906 45.066406 144.417969 45.296875 C 144.121094 45.425781 143.9375 45.71875 143.9375 46.027344 C 143.9375 46.308594 144.097656 46.527344 144.351562 46.65625 C 143.988281 46.839844 143.671875 47.242188 143.671875 47.71875 C 143.671875 48.535156 144.359375 48.957031 145.460938 48.957031 C 146.820312 48.957031 147.738281 48.238281 147.738281 47.335938 L 146.835938 47.453125 C 146.835938 47.914062 146.394531 48.253906 145.605469 48.253906 C 144.996094 48.253906 144.570312 48 144.570312 47.546875 C 144.570312 47.257812 144.75 47.003906 145.039062 46.839844 C 145.105469 46.847656 145.191406 46.847656 145.265625 46.847656 L 146.054688 46.847656 C 146.589844 46.847656 146.835938 47.085938 146.835938 47.453125 L 147.738281 47.335938 "/>
<path fill-rule="evenodd" fill="rgb(13.729858%, 12.159729%, 12.548828%)" fill-opacity="1" d="M 150.792969 47.199219 C 150.300781 48.511719 149.882812 48.910156 148.929688 48.910156 C 148.761719 48.910156 148.53125 48.886719 148.359375 48.851562 L 148.429688 48.066406 C 148.613281 48.136719 148.785156 48.160156 148.980469 48.160156 C 149.40625 48.160156 149.644531 47.964844 149.90625 47.242188 L 150.078125 46.789062 L 148.496094 42.554688 L 149.515625 42.554688 L 150.203125 44.488281 C 150.34375 44.863281 150.445312 45.238281 150.539062 45.59375 L 150.546875 45.59375 C 150.632812 45.253906 150.808594 44.710938 150.964844 44.273438 L 151.566406 42.554688 L 152.546875 42.554688 L 150.792969 47.199219 "/>
<path fill-rule="evenodd" fill="rgb(13.729858%, 12.159729%, 12.548828%)" fill-opacity="1" d="M 155.390625 46.769531 L 155.390625 46.070312 L 157.648438 42.476562 C 157.785156 42.253906 157.917969 42.058594 158.070312 41.855469 C 157.824219 41.863281 157.496094 41.863281 156.910156 41.863281 L 155.472656 41.863281 L 155.472656 41.039062 L 159.167969 41.039062 L 159.167969 41.769531 L 156.789062 45.484375 C 156.695312 45.648438 156.605469 45.78125 156.492188 45.945312 C 156.644531 45.925781 157.105469 45.925781 157.835938 45.925781 L 159.203125 45.925781 L 159.203125 46.769531 L 155.390625 46.769531 "/>
<path fill-rule="evenodd" fill="rgb(13.729858%, 12.159729%, 12.548828%)" fill-opacity="1" d="M 163.046875 46.78125 C 163.046875 46.5625 163.0625 46.199219 163.105469 45.960938 L 163.097656 45.953125 C 162.851562 46.492188 162.339844 46.863281 161.625 46.863281 C 160.660156 46.863281 160.363281 46.265625 160.363281 45.519531 L 160.363281 42.554688 L 161.269531 42.554688 L 161.269531 45.28125 C 161.269531 45.808594 161.410156 46.113281 161.898438 46.113281 C 162.535156 46.113281 163.003906 45.441406 163.003906 44.597656 L 163.003906 42.554688 L 163.910156 42.554688 L 163.910156 46.78125 L 163.046875 46.78125 "/>
<path fill-rule="evenodd" fill="rgb(13.729858%, 12.159729%, 12.548828%)" fill-opacity="1" d="M 167.675781 43.347656 C 166.835938 43.195312 166.425781 43.78125 166.425781 45.050781 L 166.425781 46.769531 L 165.519531 46.769531 L 165.519531 42.542969 L 166.386719 42.542969 C 166.386719 42.78125 166.359375 43.152344 166.300781 43.476562 L 166.316406 43.476562 C 166.503906 42.90625 166.929688 42.382812 167.71875 42.457031 L 167.675781 43.347656 "/>
<path fill-rule="evenodd" fill="rgb(13.729858%, 12.159729%, 12.548828%)" fill-opacity="1" d="M 169.84375 41.339844 C 169.84375 41.019531 169.582031 40.773438 169.269531 40.773438 C 168.945312 40.773438 168.683594 41.027344 168.683594 41.339844 C 168.683594 41.65625 168.945312 41.910156 169.269531 41.910156 C 169.582031 41.910156 169.84375 41.65625 169.84375 41.339844 Z M 169.71875 46.769531 L 169.71875 42.539062 L 168.8125 42.539062 L 168.8125 46.769531 L 169.71875 46.769531 "/>
<path fill-rule="evenodd" fill="rgb(13.729858%, 12.159729%, 12.548828%)" fill-opacity="1" d="M 172.851562 46.847656 C 171.765625 46.847656 170.976562 46.3125 170.976562 44.800781 C 170.976562 43.445312 171.664062 42.472656 173.117188 42.472656 C 173.429688 42.472656 173.753906 42.515625 174.035156 42.601562 L 173.941406 43.386719 C 173.6875 43.292969 173.398438 43.222656 173.089844 43.222656 C 172.316406 43.222656 171.925781 43.796875 171.925781 44.699219 C 171.925781 45.476562 172.207031 46.066406 173.046875 46.066406 C 173.371094 46.066406 173.71875 45.992188 173.96875 45.863281 L 174.042969 46.636719 C 173.761719 46.746094 173.320312 46.847656 172.851562 46.847656 "/>
<path fill-rule="evenodd" fill="rgb(13.729858%, 12.159729%, 12.548828%)" fill-opacity="1" d="M 177.878906 46.769531 L 177.878906 44.042969 C 177.878906 43.515625 177.734375 43.207031 177.257812 43.207031 C 176.621094 43.207031 176.160156 43.882812 176.160156 44.734375 L 176.160156 46.769531 L 175.253906 46.769531 L 175.253906 40.570312 L 176.160156 40.570312 L 176.160156 42.476562 C 176.160156 42.734375 176.140625 43.089844 176.082031 43.320312 L 176.101562 43.328125 C 176.34375 42.804688 176.84375 42.457031 177.523438 42.457031 C 178.484375 42.457031 178.78125 43.054688 178.78125 43.804688 L 178.78125 46.769531 L 177.878906 46.769531 "/>
<path fill="none" stroke-width="10.0006" stroke-linecap="butt" stroke-linejoin="miter" stroke="rgb(100%, 100%, 100%)" stroke-opacity="1" stroke-miterlimit="2.6131" d="M 7.851562 14.570312 L 1910.820312 14.570312 L 1910.820312 575.703125 L 7.851562 575.703125 Z M 7.851562 14.570312 " transform="matrix(0.1, 0, 0, -0.1, 0, 59)"/>
</svg>
